# File created by Blade
# Date/Time:  Tue Jan 27 19:23:16 2015
# Frame Rate: 120.000 fps
#------------------------------------------------------
:FULLY-SPECIFIED
:DEGREES
2600
root 3.397583 32.356357 0.101420 -3.722086 3.772058 0.940959
Spine 2.217028 1.616682 0.057390
Head 9.028810 -32.142845 -7.654214
LeftShoulder -6.289931 -5.486614 24.293314
LeftArm -2.698281 41.893820 -101.181204
LeftForeArm 3.660667 -0.000000 14.673173
LeftHand 9.982218 0.000000 -4.932497
LeftHandThumb1 -26.253704 0.000000 33.147579
RightShoulder -13.858760 -2.994434 -41.796677
RightArm 1.924858 78.017217 44.148858
RightForeArm 17.144145 -0.000000 69.022828
RightHand 27.090737 -0.000000 -14.831009
RightHandThumb1 -24.326973 -0.000000 -32.862282
LeftUpLeg 9.189932 -0.207923 0.203195
LeftLeg 2.320338 -0.000000 -0.000000
LeftFoot -16.550109 12.370353 -23.316420
LeftToeBase 16.881295 -0.000000 -0.000000
RightUpLeg 9.352918 -9.972956 1.565952
RightLeg 0.024497 -0.000000 -0.000000
RightFoot -12.830166 -15.283350 13.885234
RightToeBase 11.206974 -0.000000 -0.000000
2601
root 3.397027 32.355841 0.097242 -3.707721 3.714341 0.936215
Spine 2.214029 1.671191 0.093530
Head 9.055949 -32.118107 -7.688923
LeftShoulder -6.292142 -5.483038 24.288462
LeftArm -2.641810 41.942097 -101.170130
LeftForeArm 3.664274 0.000000 14.621327
LeftHand 9.997160 -0.000000 -4.872827
LeftHandThumb1 -26.253704 0.000000 33.147579
RightShoulder -13.876646 -3.101926 -41.671982
RightArm 2.812242 78.434096 45.347759
RightForeArm 16.904362 -0.000000 72.101222
RightHand 27.226906 -0.000000 -14.785697
RightHandThumb1 -24.326973 -0.000000 -32.862282
LeftUpLeg 9.189236 -0.196207 0.204293
LeftLeg 2.296790 -0.000000 -0.000000
LeftFoot -16.571330 12.405212 -23.349975
LeftToeBase 16.897174 -0.000000 -0.000000
RightUpLeg 9.320708 -9.931156 1.578037
RightLeg 0.028996 -0.000000 -0.000000
RightFoot -12.813650 -15.279482 13.855101
RightToeBase 11.209540 -0.000000 -0.000000
2602
root 3.396963 32.355239 0.092629 -3.690481 3.656129 0.927064
Spine 2.213815 1.718908 0.141059
Head 9.059094 -32.073925 -7.704816
LeftShoulder -6.323929 -5.489739 24.278291
LeftArm -2.625221 42.116687 -101.158259
LeftForeArm 3.532557 0.000000 14.649768
LeftHand 9.956497 0.000000 -4.808298
LeftHandThumb1 -26.253704 0.000000 33.147579
RightShoulder -13.865940 -3.120916 -41.572271
RightArm 3.382874 78.801167 46.199496
RightForeArm 16.697985 -0.000000 75.140868
RightHand 27.172386 -0.000000 -15.096150
RightHandThumb1 -24.326973 -0.000000 -32.862282
LeftUpLeg 9.180420 -0.184815 0.208979
LeftLeg 2.282369 -0.000000 -0.000000
LeftFoot -16.596351 12.435313 -23.374801
LeftToeBase 16.929337 -0.000000 -0.000000
RightUpLeg 9.286704 -9.924384 1.587115
RightLeg 0.029130 -0.000000 -0.000000
RightFoot -12.786694 -15.237773 13.830124
RightToeBase 11.215605 -0.000000 -0.000000
2603
root 3.396194 32.354920 0.088823 -3.676200 3.600188 0.920588
Spine 2.211569 1.764772 0.182854
Head 9.068972 -32.051522 -7.736620
LeftShoulder -6.336285 -5.488463 24.266439
LeftArm -2.584394 42.140014 -101.145747
LeftForeArm 3.526052 -0.000000 14.628922
LeftHand 9.904910 -0.000000 -4.765478
LeftHandThumb1 -26.253704 0.000000 33.147579
RightShoulder -13.868878 -3.122272 -41.464376
RightArm 3.971167 79.109164 47.043057
RightForeArm 16.668173 0.000000 78.149586
RightHand 26.843586 0.000000 -15.500589
RightHandThumb1 -24.326973 -0.000000 -32.862282
LeftUpLeg 9.176121 -0.159036 0.214200
LeftLeg 2.266487 -0.000000 -0.000000
LeftFoot -16.606769 12.463729 -23.375274
LeftToeBase 16.918182 -0.000000 -0.000000
RightUpLeg 9.258462 -9.893733 1.601288
RightLeg 0.026679 -0.000000 -0.000000
RightFoot -12.772025 -15.227221 13.805409
RightToeBase 11.227998 -0.000000 -0.000000
2604
root 3.397101 32.355401 0.083409 -3.649486 3.545644 0.915036
Spine 2.196654 1.813596 0.227447
Head 9.090893 -32.024106 -7.769507
LeftShoulder -6.327595 -5.496047 24.249876
LeftArm -2.539263 41.891006 -101.154843
LeftForeArm 3.738633 -0.000000 14.540088
LeftHand 9.998894 -0.000000 -4.865136
LeftHandThumb1 -26.253704 0.000000 33.147579
RightShoulder -13.872035 -3.257226 -41.333649
RightArm 5.234362 79.479952 48.532347
RightForeArm 16.905690 0.000000 81.091866
RightHand 26.822220 -0.000000 -15.718424
RightHandThumb1 -24.326973 -0.000000 -32.862282
LeftUpLeg 9.155699 -0.157217 0.212878
LeftLeg 2.251592 -0.000000 -0.000000
LeftFoot -16.614283 12.510813 -23.391359
LeftToeBase 16.896155 -0.000000 -0.000000
RightUpLeg 9.211271 -9.893741 1.606048
RightLeg 0.032869 -0.000000 -0.000000
RightFoot -12.755765 -15.172505 13.812675
RightToeBase 11.259869 -0.000000 -0.000000
2605
root 3.396060 32.355672 0.080354 -3.638703 3.500872 0.911270
Spine 2.194810 1.869883 0.254619
Head 9.120255 -32.023196 -7.776439
LeftShoulder -6.308650 -5.493262 24.243581
LeftArm -2.502228 41.803165 -101.142651
LeftForeArm 3.779537 -0.000000 14.532370
LeftHand 9.983434 -0.000000 -4.853702
LeftHandThumb1 -26.253704 0.000000 33.147579
RightShoulder -13.862008 -3.107715 -41.292126
RightArm 5.354162 79.684033 48.957913
RightForeArm 17.398031 -0.000000 83.958222
RightHand 27.195722 0.000000 -15.588836
RightHandThumb1 -24.326973 -0.000000 -32.862282
LeftUpLeg 9.160139 -0.122790 0.222698
LeftLeg 2.213454 -0.000000 -0.000000
LeftFoot -16.668672 12.499223 -23.551878
LeftToeBase 17.081313 -0.000000 -0.000000
RightUpLeg 9.191000 -9.862908 1.616300
RightLeg 0.028543 -0.000000 -0.000000
RightFoot -12.732417 -15.175620 13.791555
RightToeBase 11.199805 -0.000000 -0.000000
2606
root 3.396012 32.356092 0.076545 -3.620460 3.442911 0.909479
Spine 2.184761 1.912740 0.286558
Head 9.155719 -32.009064 -7.803467
LeftShoulder -6.314172 -5.453161 24.233548
LeftArm -2.451983 41.740887 -101.112747
LeftForeArm 3.676485 0.000000 14.569794
LeftHand 9.923731 -0.000000 -5.246526
LeftHandThumb1 -26.253704 0.000000 33.147579
RightShoulder -13.825267 -3.094775 -41.204278
RightArm 6.201269 80.017329 50.078151
RightForeArm 18.077860 -0.000000 86.796493
RightHand 27.360774 -0.000000 -15.587104
RightHandThumb1 -24.326973 -0.000000 -32.862282
LeftUpLeg 9.154347 -0.089126 0.220991
LeftLeg 2.200479 -0.000000 -0.000000
LeftFoot -16.613856 12.538125 -23.429809
LeftToeBase 16.893136 -0.000000 -0.000000
RightUpLeg 9.159338 -9.833226 1.623407
RightLeg 0.023473 -0.000000 -0.000000
RightFoot -12.720118 -15.164736 13.793880
RightToeBase 11.234420 -0.000000 -0.000000
